# xmcd CD database file
#
# Track frame offsets:
#	150
#	5795
#	14880
#	28540
#	38105
#	49762
#	60880
#
# Disc length: 1236 seconds
#
# Revision: 0
# Processed by: cddbd v1.5.1PL0 Copyright (c) Steve Scherf et al.
# Submitted via: CDex 1.51
#
DISCID=5304d207
DTITLE=野村義男 - キッズパラパラ２
DYEAR=1900
DGENRE=JPop
TTITLE0=大きなくりの木の下で
TTITLE1=きらきらぼし
TTITLE2=とんでったバナナ
TTITLE3=森のくまさん
TTITLE4=ぞうさん
TTITLE5=ともだち讃歌
TTITLE6=パラパラウィンターメドレー〜OpeningKidsParaPara・ゆき・ジングルベル・赤鼻のトナカイ・あわてんぼうのサンタクロース・OpeningKidsParaPara〜
EXTD=
EXTT0=
EXTT1=
EXTT2=
EXTT3=
EXTT4=
EXTT5=
EXTT6=
PLAYORDER=
